<svg width="467" height="444" xmlns="http://www.w3.org/2000/svg" xmlns:xlink="http://www.w3.org/1999/xlink" xml:space="preserve" overflow="hidden"><g transform="translate(-406 -138)"><g><g><g><path d="M550.071 139.136 168.976 139.136C146.158 139.12 127.647 157.605 127.631 180.423 127.631 180.442 127.631 180.462 127.631 180.481L127.631 538.566C127.617 549.1 131.091 559.343 137.511 567.695 142.067 573.5 148.848 577.128 156.206 577.697 158.665 577.912 161.124 578.107 163.59 578.294 242.966 584.147 319.976 574.519 393.772 543.973 420.24 533.022 446.262 520.914 468.358 500.831 469.65 499.648 469.739 497.642 468.556 496.35 467.93 495.666 467.035 495.291 466.108 495.323L461.305 495.481C402.544 497.163 343.834 496.466 285.224 491.612 277.61 490.98 270.081 489.571 262.754 487.406 252.608 484.393 251.127 478.871 257.555 470.415 266.105 459.169 278.724 456.127 291.703 453.92 350.097 443.976 408.534 434.29 464.411 413.488 499.04 400.603 529.463 379.887 561.295 361.86 565.471 359.502 569.679 357.239 573.922 355.073 584.61 349.696 591.371 338.771 591.416 326.807L591.416 180.481C591.432 157.662 572.947 139.151 550.128 139.136 550.109 139.136 550.09 139.136 550.071 139.136ZM348.939 419.319C329.784 423.008 310.6 426.28 291.624 429.508L287.655 430.184C269.887 433.211 251.623 438.417 238.357 455.854 227.938 469.538 228.657 481.229 231.073 488.621 233.489 496.013 239.737 505.735 255.887 510.523 264.795 513.163 273.952 514.878 283.211 515.643 316.618 518.411 351.089 519.957 387.84 520.331L384.532 521.712C324.794 546.425 261.618 557.549 191.892 555.572 187.263 555.458 183.603 551.613 183.716 546.984 183.728 546.517 183.778 546.051 183.868 545.591L256.959 174.563C257.669 170.889 259.524 167.534 262.258 164.978 262.846 164.445 263.756 164.489 264.289 165.078 264.413 165.214 264.51 165.373 264.573 165.546L351.614 414.602C352.273 416.475 351.289 418.528 349.417 419.188 349.261 419.242 349.101 419.287 348.939 419.319ZM509.919 364.097C491.124 375.062 474.312 384.115 455.991 390.931 427.452 401.552 397.633 409.267 367.433 415.609 365.668 415.978 363.902 414.981 363.306 413.279L275.553 162.145C275.301 161.392 275.707 160.577 276.46 160.325 276.664 160.257 276.879 160.235 277.092 160.261 280.561 160.728 283.813 162.212 286.44 164.525L510.315 359.991C511.37 360.913 511.478 362.517 510.555 363.572 510.373 363.781 510.159 363.958 509.919 364.097Z" fill="#05668D" fill-rule="nonzero" fill-opacity="1" transform="matrix(1 0 0 1.00307 280.347 -0.518927)"/></g></g></g></g></svg>